<?xml version="1.0" encoding="UTF-8"?>
<svg width="175px" height="135px" viewBox="0 0 175 135" version="1.1" xmlns="http://www.w3.org/2000/svg" xmlns:xlink="http://www.w3.org/1999/xlink">
    <!-- Generator: Sketch 51 (57462) - http://www.bohemiancoding.com/sketch -->
    <title>empty_status</title>
    <desc>Created with Sketch.</desc>
    <defs>
        <rect id="path-1" x="9.89343109" y="7.99904009" width="65.4347826" height="85.0632429" rx="6"></rect>
        <path d="M42.3181476,8.06041749 L69.7195181,7.99904009 C72.8171151,7.99904009 75.3282137,10.5100804 75.3282137,13.6076056 L75.3282137,87.4537175 C75.3282137,90.5512427 72.8171151,93.062283 69.7195181,93.062283 L15.5021267,93.062283 C12.4045297,93.062283 9.89343109,90.5512427 9.89343109,87.4537175 L9.89343109,13.6076056 C9.89343109,10.5100804 12.4045297,7.99904009 15.5021267,7.99904009 L38.5690946,8.12954453 C38.8599328,8.13118998 39.1507799,8.12887029 39.4415549,8.12258609 L42.3181476,8.06041749 Z" id="path-3"></path>
    </defs>
    <g id="Web" stroke="none" stroke-width="1" fill="none" fill-rule="evenodd">
        <g id="空白/报错提示" transform="translate(-93.000000, -168.000000)">
            <g id="无数据" transform="translate(49.000000, 105.000000)">
                <g id="huibai-copy-2" transform="translate(42.000000, 64.000000)">
                    <g>
                        <path d="M26.1542969,132.583984 C20.5341797,132.790187 -24.9326219,6.97587174 90.0332031,5.671875 C214.102534,6.92020768 167.708008,133.618992 159.548828,132.583984 C151.389648,131.548977 31.7744141,132.377781 26.1542969,132.583984 Z" id="Path-3" fill="#F9F9F9" opacity="0.654326026"></path>
                        <path d="M93,134 C127.793939,134 156,133.082031 156,94 C156,54.9179687 127.793939,31 93,31 C58.2060608,31 30,55.3808594 30,94 C30,132.619141 58.2060608,134 93,134 Z" id="Oval-4-Copy" fill="#F0F0F0"></path>
                        <g id="Group-4" transform="translate(42.000000, 129.000000)" fill="#000000" fill-opacity="0.16">
                            <polygon id="Path-5" points="22 4 0 4 13 0"></polygon>
                        </g>
                        <g id="Group-5" transform="translate(10.000000, 132.000000)" fill="#C3C3C3" stroke="#979797">
                            <rect id="Rectangle-7" x="0.5" y="0.5" width="11" height="1" rx="0.5"></rect>
                            <rect id="Rectangle-7-Copy-3" x="127.5" y="0.5" width="35" height="1" rx="0.5"></rect>
                            <rect id="Rectangle-7-Copy" x="15.5" y="0.5" width="103" height="1" rx="0.5"></rect>
                            <rect id="Rectangle-7-Copy-2" x="121.5" y="0.5" width="3" height="1" rx="0.5"></rect>
                        </g>
                        <g id="Group-3" transform="translate(31.000000, 35.000000)">
                            <g id="Group">
                                <mask id="mask-2" fill="white">
                                    <use xlink:href="#path-1"></use>
                                </mask>
                                <use id="Rectangle" fill="#F9F9F9" transform="translate(42.610822, 50.530662) rotate(-15.000000) translate(-42.610822, -50.530662) " xlink:href="#path-1"></use>
                                <rect id="Rectangle-Copy" fill="#F0F0F0" mask="url(#mask-2)" transform="translate(39.209709, 51.346146) rotate(-15.000000) translate(-39.209709, -51.346146) " x="11.3105909" y="12.4475173" width="55.7982357" height="77.7972567"></rect>
                                <mask id="mask-4" fill="white">
                                    <use xlink:href="#path-3"></use>
                                </mask>
                                <path stroke="#888888" stroke-width="2" d="M42.3300721,9.06039329 L39.4631617,9.12235264 C39.1633,9.12883321 38.8633639,9.1312254 38.563437,9.12952852 L15.5021267,8.99904009 C12.9568092,8.99904009 10.8934311,11.0623703 10.8934311,13.6076056 L10.8934311,87.4537175 C10.8934311,89.9989528 12.9568092,92.062283 15.5021267,92.062283 L69.7195181,92.062283 C72.2648356,92.062283 74.3282137,89.9989528 74.3282137,87.4537175 L74.3282137,13.6076056 C74.3282137,11.0623703 72.2648356,8.99904009 69.721758,8.99903758 L42.3300721,9.06039329 Z"></path>
                            </g>
                            <g id="Group-2" transform="translate(12.000000, 21.000000)">
                                <path d="M0,20.6666667 L7.97959184,50.2575758" id="Path-2" stroke="#FFFFFF" stroke-width="2" stroke-linecap="round"></path>
                                <rect id="Rectangle-4" fill="#FFFFFF" transform="translate(9.387755, 54.954545) rotate(-15.000000) translate(-9.387755, -54.954545) " x="8.44897959" y="53.5454545" width="1.87755102" height="2.81818182" rx="0.93877551"></rect>
                                <rect id="Rectangle-6" stroke="#DBDBDB" fill="#A9A9A9" transform="translate(18.655430, 11.857178) rotate(-15.000000) translate(-18.655430, -11.857178) " x="3.20692916" y="10.4783905" width="30.8970021" height="2.75757576" rx="1"></rect>
                                <rect id="Rectangle-6-Copy" stroke="#888888" fill="#F0F0F0" transform="translate(21.581154, 25.058785) rotate(-15.000000) translate(-21.581154, -25.058785) " x="6.48601425" y="21.3315125" width="30.1902797" height="7.45454545" rx="2"></rect>
                                <rect id="Rectangle-6-Copy-2" stroke="#888888" fill="#F0F0F0" transform="translate(25.336256, 39.149694) rotate(-15.000000) translate(-25.336256, -39.149694) " x="10.2411163" y="35.4224215" width="30.1902797" height="7.45454545" rx="2"></rect>
                                <rect id="Rectangle-6-Copy-3" stroke="#888888" fill="#F0F0F0" transform="translate(29.091358, 53.240603) rotate(-15.000000) translate(-29.091358, -53.240603) " x="13.9962183" y="49.5133306" width="30.1902797" height="7.45454545" rx="2"></rect>
                                <path d="M1.90678751,3.51444272 L4.60066506,3.51444272 C5.15294981,3.51444272 5.60066506,3.96215797 5.60066506,4.51444272 L5.60066506,7.21141241 C5.60066506,7.76369716 5.15294981,8.21141241 4.60066506,8.21141241 L1.90678751,8.21141241 C1.35450276,8.21141241 0.90678751,7.76369716 0.90678751,7.21141241 L0.90678751,4.51444272 C0.90678751,3.96215797 1.35450276,3.51444272 1.90678751,3.51444272 Z M10.3557671,3.51444272 L13.0496447,3.51444272 C13.6019294,3.51444272 14.0496447,3.96215797 14.0496447,4.51444272 L14.0496447,7.21141241 C14.0496447,7.76369716 13.6019294,8.21141241 13.0496447,8.21141241 L10.3557671,8.21141241 C9.80348235,8.21141241 9.3557671,7.76369716 9.3557671,7.21141241 L9.3557671,4.51444272 C9.3557671,3.96215797 9.80348235,3.51444272 10.3557671,3.51444272 Z M18.8047467,3.51444272 L21.4986242,3.51444272 C22.050909,3.51444272 22.4986242,3.96215797 22.4986242,4.51444272 L22.4986242,7.21141241 C22.4986242,7.76369716 22.050909,8.21141241 21.4986242,8.21141241 L18.8047467,8.21141241 C18.2524619,8.21141241 17.8047467,7.76369716 17.8047467,7.21141241 L17.8047467,4.51444272 C17.8047467,3.96215797 18.2524619,3.51444272 18.8047467,3.51444272 Z" id="Path" fill="#888888" transform="translate(11.702706, 5.862928) rotate(-15.000000) translate(-11.702706, -5.862928) "></path>
                            </g>
                        </g>
                        <path d="M136,34 L70,34 C67.2385763,34 65,36.2385763 65,39 L65,128 C65,130.761424 67.2385763,133 70,133 C72.5005517,133 72.5005517,133 73.9326172,133 C75.1437506,133 75.1437506,133 76.6663287,133 C76.7377214,133 76.7377214,133 76.809082,133 C78.7671914,133 78.7671914,133 80,133 C83.3397227,133 83.3397227,133 87.0114746,133 C87.9345141,133 87.9345141,133 88.9445801,133 C89.9295289,133 89.9295289,133 91.1391602,133 C103.328912,133 103.328912,133 136,133 C138.761424,133 141,130.761424 141,128 L141,39 C141,36.2385763 138.761424,34 136,34 Z" id="Rectangle" stroke="#888888" stroke-width="2" fill="#F9F9F9"></path>
                        <rect id="Rectangle-5" fill="#FFFFFF" x="69" y="37" width="71" height="95" rx="4"></rect>
                        <path d="M119.5,35 C120.052285,35 121,34.5522847 121,34 C121,33.4477153 120.052285,33 119.5,33 C118.947715,33 118.5,33.4477153 118.5,34 C118.5,34.5522847 118.947715,35 119.5,35 Z" id="Oval-3" fill="#888888"></path>
                        <path d="M126.998675,35 C127.55096,35 127.498675,34.5522847 127.498675,34 C127.498675,33.4477153 127.55096,33 126.998675,33 C126.44639,33 125.998675,33.4477153 125.998675,34 C125.998675,34.5522847 126.44639,35 126.998675,35 Z" id="Oval-3" fill="#888888" transform="translate(126.749337, 34.000000) scale(-1, 1) translate(-126.749337, -34.000000) "></path>
                        <path d="M115,35 C115.552285,35 116.5,34.5522847 116.5,34 C116.5,33.4477153 115.552285,33 115,33 C114.447715,33 114,33.4477153 114,34 C114,34.5522847 114.447715,35 115,35 Z" id="Oval-3-Copy" fill="#888888" transform="translate(115.250000, 34.000000) scale(-1, 1) translate(-115.250000, -34.000000) "></path>
                        <path d="M130.5,35 C131.052285,35 131.5,34.5522847 131.5,34 C131.5,33.4477153 131.052285,33 130.5,33 C129.947715,33 129.5,33.4477153 129.5,34 C129.5,34.5522847 129.947715,35 130.5,35 Z" id="Oval-3" fill="#888888"></path>
                        <path d="M86.038542,56.538542 L86.038542,52.3462343 C86.038542,51.7089827 86.5551365,51.1923882 87.1923882,51.1923882 C87.8296398,51.1923882 88.3462343,51.7089827 88.3462343,52.3462343 L88.3462343,56.538542 L92.538542,56.538542 C93.1757936,56.538542 93.6923882,57.0551365 93.6923882,57.6923882 C93.6923882,58.3296398 93.1757936,58.8462343 92.538542,58.8462343 L88.3462343,58.8462343 L88.3462343,63.038542 C88.3462343,63.6757936 87.8296398,64.1923882 87.1923882,64.1923882 C86.5551365,64.1923882 86.038542,63.6757936 86.038542,63.038542 L86.038542,58.8462343 L81.8462343,58.8462343 C81.2089827,58.8462343 80.6923882,58.3296398 80.6923882,57.6923882 C80.6923882,57.0551365 81.2089827,56.538542 81.8462343,56.538542 L86.038542,56.538542 Z" id="Rectangle-3" fill="#888888" transform="translate(87.192388, 57.692388) rotate(45.000000) translate(-87.192388, -57.692388) "></path>
                        <path d="M116.038542,56.538542 L116.038542,52.3462343 C116.038542,51.7089827 116.555137,51.1923882 117.192388,51.1923882 C117.82964,51.1923882 118.346234,51.7089827 118.346234,52.3462343 L118.346234,56.538542 L122.538542,56.538542 C123.175794,56.538542 123.692388,57.0551365 123.692388,57.6923882 C123.692388,58.3296398 123.175794,58.8462343 122.538542,58.8462343 L118.346234,58.8462343 L118.346234,63.038542 C118.346234,63.6757936 117.82964,64.1923882 117.192388,64.1923882 C116.555137,64.1923882 116.038542,63.6757936 116.038542,63.038542 L116.038542,58.8462343 L111.846234,58.8462343 C111.208983,58.8462343 110.692388,58.3296398 110.692388,57.6923882 C110.692388,57.0551365 111.208983,56.538542 111.846234,56.538542 L116.038542,56.538542 Z" id="Rectangle-3-Copy" fill="#888888" transform="translate(117.192388, 57.692388) rotate(45.000000) translate(-117.192388, -57.692388) "></path>
                        <circle id="Oval-2" stroke="#888888" stroke-width="2" fill="#F0F0F0" cx="102" cy="73" r="6"></circle>
                        <circle id="Oval-2" fill="#FFFFFF" cx="101.5" cy="72.5" r="4.5"></circle>
                        <g id="Combined-Shape" transform="translate(0.000000, 72.000000)" fill="#E4E4E4">
                            <path d="M7.2,2.8 L8.8,2.8 C9.4627417,2.8 10,3.3372583 10,4 C10,4.6627417 9.4627417,5.2 8.8,5.2 L7.2,5.2 L7.2,6.8 C7.2,7.4627417 6.6627417,8 6,8 C5.3372583,8 4.8,7.4627417 4.8,6.8 L4.8,5.2 L3.2,5.2 C2.5372583,5.2 2,4.6627417 2,4 C2,3.3372583 2.5372583,2.8 3.2,2.8 L4.8,2.8 L4.8,1.2 C4.8,0.5372583 5.3372583,1.21743675e-16 6,0 C6.6627417,-1.21743675e-16 7.2,0.5372583 7.2,1.2 L7.2,2.8 Z"></path>
                        </g>
                        <g id="Combined-Shape-Copy-4" transform="translate(167.000000, 35.000000)" fill="#E4E4E4">
                            <path d="M7.2,2.8 L8.8,2.8 C9.4627417,2.8 10,3.3372583 10,4 C10,4.6627417 9.4627417,5.2 8.8,5.2 L7.2,5.2 L7.2,6.8 C7.2,7.4627417 6.6627417,8 6,8 C5.3372583,8 4.8,7.4627417 4.8,6.8 L4.8,5.2 L3.2,5.2 C2.5372583,5.2 2,4.6627417 2,4 C2,3.3372583 2.5372583,2.8 3.2,2.8 L4.8,2.8 L4.8,1.2 C4.8,0.5372583 5.3372583,1.21743675e-16 6,0 C6.6627417,-1.21743675e-16 7.2,0.5372583 7.2,1.2 L7.2,2.8 Z" id="Combined-Shape"></path>
                        </g>
                        <g id="Combined-Shape-Copy-3" transform="translate(88.000000, 0.000000)" fill="#C0C0C0" stroke="#FFFFFF">
                            <path d="M7.7,2.3 L8.8,2.3 C9.73888407,2.3 10.5,3.06111593 10.5,4 C10.5,4.93888407 9.73888407,5.7 8.8,5.7 L7.7,5.7 L7.7,6.8 C7.7,7.73888407 6.93888407,8.5 6,8.5 C5.06111593,8.5 4.3,7.73888407 4.3,6.8 L4.3,5.7 L3.2,5.7 C2.26111593,5.7 1.5,4.93888407 1.5,4 C1.5,3.06111593 2.26111593,2.3 3.2,2.3 L4.3,2.3 L4.3,1.2 C4.3,0.261115925 5.06111593,-0.5 6,-0.5 C6.93888407,-0.5 7.7,0.261115925 7.7,1.2 L7.7,2.3 Z" id="Combined-Shape"></path>
                        </g>
                        <g id="Combined-Shape-Copy-5" transform="translate(162.000000, 91.000000)" fill="#C0C0C0" stroke="#FFFFFF">
                            <path d="M7.7,2.3 L8.8,2.3 C9.73888407,2.3 10.5,3.06111593 10.5,4 C10.5,4.93888407 9.73888407,5.7 8.8,5.7 L7.7,5.7 L7.7,6.8 C7.7,7.73888407 6.93888407,8.5 6,8.5 C5.06111593,8.5 4.3,7.73888407 4.3,6.8 L4.3,5.7 L3.2,5.7 C2.26111593,5.7 1.5,4.93888407 1.5,4 C1.5,3.06111593 2.26111593,2.3 3.2,2.3 L4.3,2.3 L4.3,1.2 C4.3,0.261115925 5.06111593,-0.5 6,-0.5 C6.93888407,-0.5 7.7,0.261115925 7.7,1.2 L7.7,2.3 Z" id="Combined-Shape"></path>
                        </g>
                        <g id="Combined-Shape-Copy-2" transform="translate(26.000000, 103.000000)" fill="#C7C7C7" opacity="0.482567631">
                            <path d="M3.8,1.86666667 L4.86666667,1.86666667 C5.30849447,1.86666667 5.66666667,2.22483887 5.66666667,2.66666667 C5.66666667,3.10849447 5.30849447,3.46666667 4.86666667,3.46666667 L3.8,3.46666667 L3.8,4.53333333 C3.8,4.97516113 3.4418278,5.33333333 3,5.33333333 C2.5581722,5.33333333 2.2,4.97516113 2.2,4.53333333 L2.2,3.46666667 L1.13333333,3.46666667 C0.691505533,3.46666667 0.333333333,3.10849447 0.333333333,2.66666667 C0.333333333,2.22483887 0.691505533,1.86666667 1.13333333,1.86666667 L2.2,1.86666667 L2.2,0.8 C2.2,0.3581722 2.5581722,8.11624501e-17 3,0 C3.4418278,-8.11624501e-17 3.8,0.3581722 3.8,0.8 L3.8,1.86666667 Z" id="Combined-Shape"></path>
                        </g>
                        <g id="Combined-Shape-Copy" transform="translate(20.000000, 23.000000)" fill="#C0C0C0" stroke="#FFFFFF">
                            <path d="M10.1,3.23333333 L11.7333333,3.23333333 C12.8931313,3.23333333 13.8333333,4.17353536 13.8333333,5.33333333 C13.8333333,6.49313131 12.8931313,7.43333333 11.7333333,7.43333333 L10.1,7.43333333 L10.1,9.06666667 C10.1,10.2264646 9.15979797,11.1666667 8,11.1666667 C6.84020203,11.1666667 5.9,10.2264646 5.9,9.06666667 L5.9,7.43333333 L4.26666667,7.43333333 C3.10686869,7.43333333 2.16666667,6.49313131 2.16666667,5.33333333 C2.16666667,4.17353536 3.10686869,3.23333333 4.26666667,3.23333333 L5.9,3.23333333 L5.9,1.6 C5.9,0.440202025 6.84020203,-0.5 8,-0.5 C9.15979797,-0.5 10.1,0.440202025 10.1,1.6 L10.1,3.23333333 Z" id="Combined-Shape"></path>
                        </g>
                        <g id="1\" transform="translate(75.000000, 87.000000)">
                            <g id="Group-5">
                                <g id="Group-27" transform="translate(12.000000, 0.000000)">
                                    <rect id="Path" fill="#888888" x="0" y="0" width="44" height="8" rx="1"></rect>
                                    <rect id="Path" fill="#FFFFFF" x="1" y="1" width="42" height="6.18181818" rx="1"></rect>
                                    <polyline id="Path-6-Copy" stroke="#C0C0C0" stroke-linecap="round" points="40.8566895 4 40.8566895 6.1159668 38 6.1159668"></polyline>
                                </g>
                                <rect id="Rectangle-2" fill="#888888" x="0" y="0" width="8" height="8" rx="1"></rect>
                                <rect id="Rectangle-2" fill="#FFFFFF" x="1" y="1" width="6" height="6" rx="1"></rect>
                            </g>
                            <polyline id="Path-6" stroke="#C0C0C0" stroke-linecap="round" points="5.85668945 4 5.85668945 6.1159668 3 6.1159668"></polyline>
                        </g>
                        <g id="1\" transform="translate(75.000000, 99.000000)">
                            <g id="Group-5">
                                <rect id="Path" fill="#888888" x="12" y="0" width="44" height="8" rx="1"></rect>
                                <rect id="Rectangle-2" fill="#888888" x="0" y="0" width="8" height="8" rx="1"></rect>
                                <rect id="Rectangle-2" fill="#FFFFFF" x="1" y="1" width="6" height="6" rx="1"></rect>
                            </g>
                            <rect id="Path" fill="#FFFFFF" x="13" y="1" width="42" height="6.18181818" rx="1"></rect>
                            <polyline id="Path-6" stroke="#C0C0C0" stroke-linecap="round" points="5.85668945 4 5.85668945 6.1159668 3 6.1159668"></polyline>
                            <polyline id="Path-6-Copy" stroke="#C0C0C0" stroke-linecap="round" points="52.8566895 4 52.8566895 6.1159668 50 6.1159668"></polyline>
                        </g>
                        <g id="1\" transform="translate(75.000000, 111.000000)">
                            <g id="Group-5">
                                <rect id="Path" fill="#888888" x="12" y="0" width="44" height="8" rx="1"></rect>
                                <rect id="Rectangle-2" fill="#888888" x="0" y="0" width="8" height="8" rx="1"></rect>
                                <rect id="Rectangle-2" fill="#FFFFFF" x="1" y="1" width="6" height="6" rx="1"></rect>
                            </g>
                            <rect id="Path" fill="#FFFFFF" x="13" y="1" width="42" height="6.18181818" rx="1"></rect>
                            <polyline id="Path-6" stroke="#C0C0C0" stroke-linecap="round" points="5.85668945 4 5.85668945 6.1159668 3 6.1159668"></polyline>
                            <polyline id="Path-6-Copy" stroke="#C0C0C0" stroke-linecap="round" points="52.8566895 4 52.8566895 6.1159668 50 6.1159668"></polyline>
                        </g>
                    </g>
                </g>
            </g>
        </g>
    </g>
</svg>