<?xml version="1.0" encoding="UTF-8"?>
<svg width="173px" height="134px" viewBox="0 0 173 134" version="1.1" xmlns="http://www.w3.org/2000/svg" xmlns:xlink="http://www.w3.org/1999/xlink">
    <!-- Generator: Sketch 51 (57462) - http://www.bohemiancoding.com/sketch -->
    <title>no_wifi@1.5x</title>
    <desc>Created with Sketch.</desc>
    <defs>
        <polygon id="path-1" points="15 1 0 17 35 17 19 0"></polygon>
        <rect id="path-3" x="0" y="0" width="60" height="25" rx="3"></rect>
        <path d="M1.50178209,52.3514603 C5.85929779,56.708976 20.912651,48.7205517 35.1243875,34.5088151 C48,23 57.3575157,6.3575157 53,2 C48.6469534,-0.391037818 40.312214,-0.303358362 19.3444273,18.7288549 C5.13269074,32.9405914 -3.68778597,47.6966416 1.50178209,52.3514603 Z" id="path-5"></path>
        <path d="M2,52 C14.5789763,54.7953281 34.3516723,36.2664336 45,23 C49.5889932,17.2827104 51.397664,12.8070079 52,11 C48,8 40,3 17.1522122,24.2564004 C5.39119716,36.0174154 -2.58980816,47.8527272 2,52 Z" id="path-7"></path>
        <path d="M0,3 L12,27 C14.0222288,25.5351792 15.6888954,24.2018458 17,23 C18.3111046,21.7981542 20.6444379,19.4648208 24,16 L2,0 L0,3 Z" id="path-9"></path>
    </defs>
    <g id="Web" stroke="none" stroke-width="1" fill="none" fill-rule="evenodd">
        <g id="空白/报错提示" transform="translate(-95.000000, -471.000000)">
            <g id="无网络" transform="translate(49.000000, 404.000000)">
                <g id="WU1wifi" transform="translate(44.000000, 68.000000)">
                    <g>
                        <g id="404-copy-2" transform="translate(15.000000, 10.000000)">
                            <path d="M77,122.5625 C146.138672,122.5625 154,126.228516 154,77 C154,27.7714844 119.525926,0 77,0 C34.4740743,0 3.73159727e-15,28.4746094 0,77 C0,125.525391 7.86132812,122.5625 77,122.5625 Z" id="Oval-4-Copy-2" fill="#F9F9F9"></path>
                            <path d="M77,122.522949 C111.793939,122.522949 140,124.793939 140,90 C140,55.2060608 111.793939,27 77,27 C42.2060608,27 14,55.2060608 14,90 C14,124.793939 42.2060608,122.522949 77,122.522949 Z" id="Oval-4-Copy-3" fill="#F0F0F0"></path>
                            <g id="Group-6-Copy" transform="translate(75.000000, 108.000000)"></g>
                        </g>
                        <g id="Group-16" transform="translate(97.000000, 90.000000)">
                            <g id="Group-9">
                                <path d="M9.78705583,40.1134717 C4.16127491,40.4500395 0,41.0708148 0,35 C0,29.4537589 3.473201,24.7187274 8.36324374,22.8512647 C8.12538719,21.7720741 8,20.6506799 8,19.5 C8,14.8448183 10.0521891,10.668951 13.3012327,7.8277326 C14.4794948,6.79736789 15.8151603,5.9425285 17.2674353,5.30400832 C17.5694198,5.17123511 17.8764463,5.04781525 18.1881481,4.9341155 C18.563564,4.79717471 18.9457618,4.67433388 19.3341008,4.56623382 C20.6596753,4.19723995 22.0568037,4 23.5,4 C29.9368434,4 35.4572699,7.92364742 37.8000485,13.5097114 C39.4801863,12.5490423 41.4259753,12 43.5,12 C49.8512746,12 55,17.1487254 55,23.5 C55,24.748184 54.8011456,25.949923 54.4333892,27.0752648 C54.7817863,27.0256614 55.1378964,27 55.5,27 C59.6421356,27 63,30.3578644 63,34.5 C63,38.6421356 59.6421356,41 55.5,41 C55.329743,41 55.160811,40.9960164 54.9933827,40.9880889 L55,41 L9.78705583,40.1134717 Z" id="Oval-7-Copy-3" fill="#E7E7E7"></path>
                                <path d="M23,30 C30.7319865,30 36,25.7319865 36,18 C36,10.2680135 29.7319865,4 22,4 C20.6964679,4 19.4345454,4.17815222 18.2372523,4.511437 C17.8864946,4.60907576 17.5412836,4.72002877 17.2021983,4.84371723 C16.9206612,4.94641377 16.6433469,5.05788978 16.3705867,5.17781397 C15.0588544,5.75454187 13.8524469,6.52665487 12.7882102,7.45730687 C9.85359012,10.0235686 8,13.7953197 8,18 C8,25.7319865 15.2680135,30 23,30 Z" id="Path" fill="#C2C2C2"></path>
                                <path d="M12.0769231,40.01699 C18.1945388,40.01699 25,42.0776546 25,35.2900483 C25,28.5024421 18.1945388,23 12.0769231,23 C7.32987049,23 2.57624963,26.3441446 1,31 C0.544907174,32.3442328 0,34.4793352 0,36 C0,42.7876063 5.95930739,40.01699 12.0769231,40.01699 Z" id="Path" fill="#F9F9F9"></path>
                                <path d="M24,41 L55,41 C59.6666667,38.9695095 62,37.3028429 62,36 C62,35.1900767 62.8034766,31.3590926 61,29.4950446 C60.2682691,28.7387379 58.2682691,27.9070563 55,27 C54.7482351,23.625184 54.4149018,21.2918506 54,20 C52.9618004,16.7674306 51.0572875,14.6195816 50,14 C48.9157427,13.3646138 42.093216,11.6649356 40,13 C39.5850931,13.2646298 38.7923643,13.2045401 39,14 C39.554108,16.1228076 39.3847062,19.0307765 39,19 C36.0423901,18.7633912 31.3757234,22.2617394 25,29.4950446 C25.3214782,29.6929084 25.6548115,30.1945602 26,31 C28,35.6666667 27.3333333,39 24,41 Z" id="Path" fill="#C2C2C2"></path>
                                <path d="M18.9003623,4.06531497 C17.9344365,3.80649592 13.2942761,5.66899722 12.6877259,6.7470607 M10.823892,8.262932 C8.18894684,10.7671368 6.43386891,14.1884262 6.07019022,18.0152682 C6.02375174,18.5039213 6,18.9991869 6,19.5 M37,19.5 C37,18.6673454 36.9343441,17.8500256 36.8079269,17.0529352 C35.6346654,9.65524249 29.227759,4 21.5,4" id="Path" stroke="#979797" stroke-width="1.5" stroke-linecap="round" transform="translate(21.500000, 11.750000) rotate(-15.000000) translate(-21.500000, -11.750000) "></path>
                                <path d="M1.38964809,29 C0.165893865,30.9824256 0,32.4992133 0,35 C0,37.105909 0.500739271,38.406598 1.38964809,39.1932538 M24.9927594,29.9739093 C24.9927594,29 24,27 23,26 M20.6758595,24.5069475 C18.5247997,22.9307366 15.8710924,22 13,22 C8.92679265,22 5.29111608,23.873292 2.90751012,26.8053361" id="Path" stroke="#979797" stroke-width="1.5" fill="#F9F9F9" stroke-linecap="round"></path>
                                <path d="M54.4316352,27.0806276 C54.4989858,26.8748779 54.5606896,26.6665717 54.6165633,26.4558922 C54.8667087,25.5126848 55,24.5219083 55,23.5 C55,17.3386698 50.1546304,12.3090363 44.0665011,12.0137095 C43.8788133,12.004605 43.6899444,12 43.5,12 M41.041702,12.2633419 C40.1387996,12.4599605 39.2754991,12.7626371 38.4655061,13.1576662 C38.092212,13.3397197 38.3493083,12.9377243 38,13.1576662" id="Path" stroke="#979797" stroke-width="1.55" fill="#C2C2C2" stroke-linecap="round"></path>
                                <path d="M55.5,41 C58,41 63,38.4836367 63,34.5 C63,30.3578644 59.6421356,27 55.5,27 C55.214844,27 54.9334049,27.015914 54.6565224,27.0469023" id="Oval-7-Copy-3" stroke="#979797" stroke-width="1.5" stroke-linecap="round"></path>
                            </g>
                        </g>
                        <g id="Group-10" transform="translate(79.000000, 86.000000)">
                            <mask id="mask-2" fill="white">
                                <use xlink:href="#path-1"></use>
                            </mask>
                            <use id="Path-6" stroke="#979797" stroke-width="1.5" fill="#F9F9F9" xlink:href="#path-1"></use>
                            <path d="M17,2 C17.6666667,2 19.6666667,7.33333333 23,18 L39,18 L23,-2 C18.3333333,0.666666667 16.3333333,2 17,2 Z" id="Path-7" fill="#C2C2C2" mask="url(#mask-2)"></path>
                            <path d="M16,-8.8817842e-16 L6,17 L24,17 C20.7826246,9.41307733 18.4492913,4.079744 17,1 C15.5507087,-2.079744 15.2173754,-2.41307733 16,-8.8817842e-16 Z" id="Path-8" fill="#D9D9D9" mask="url(#mask-2)"></path>
                        </g>
                        <g id="Group-17" transform="translate(70.000000, 108.000000)">
                            <mask id="mask-4" fill="white">
                                <use xlink:href="#path-3"></use>
                            </mask>
                            <rect stroke="#979797" stroke-width="1.5" x="0.75" y="0.75" width="58.5" height="23.5" rx="3"></rect>
                            <rect id="Rectangle-9" fill="#C2C2C2" mask="url(#mask-4)" x="26" y="12" width="18" height="8" rx="2"></rect>
                            <rect id="Rectangle-9-Copy" fill="#C2C2C2" mask="url(#mask-4)" x="40" y="3" width="18" height="8" rx="2"></rect>
                            <rect id="Rectangle-9-Copy-3" fill="#C2C2C2" mask="url(#mask-4)" x="40" y="21" width="18" height="8" rx="2"></rect>
                            <rect id="Rectangle-9-Copy-2" fill="#C2C2C2" mask="url(#mask-4)" x="12" y="3" width="18" height="8" rx="2"></rect>
                            <rect id="Rectangle-9-Copy-4" fill="#C2C2C2" mask="url(#mask-4)" x="12" y="21" width="18" height="8" rx="2"></rect>
                        </g>
                        <rect id="Rectangle-8-Copy" stroke="#979797" stroke-width="1.5" fill="#D8D8D8" x="64.75" y="102.75" width="70.5" height="6.5" rx="3"></rect>
                        <rect id="Rectangle-8-Copy" fill="#F9F9F9" x="64.5" y="103.5" width="70" height="3" rx="1.5"></rect>
                        <polygon id="Path-6" stroke="#979797" stroke-width="1.5" points="94 87 80 102 114 102 98 86"></polygon>
                        <g id="grass" transform="translate(12.000000, 91.000000)">
                            <g id="Group-9" transform="translate(11.000000, 0.000000)">
                                <path d="M9.78705583,40.1134717 C4.16127491,40.4500395 0,41.0708148 0,35 C0,29.4537589 3.473201,24.7187274 8.36324374,22.8512647 C8.12538719,21.7720741 8,20.6506799 8,19.5 C8,14.8448183 10.0521891,10.668951 13.3012327,7.8277326 C14.4794948,6.79736789 15.8151603,5.9425285 17.2674353,5.30400832 C17.5694198,5.17123511 17.8764463,5.04781525 18.1881481,4.9341155 C18.563564,4.79717471 18.9457618,4.67433388 19.3341008,4.56623382 C20.6596753,4.19723995 22.0568037,4 23.5,4 C29.9368434,4 35.4572699,7.92364742 37.8000485,13.5097114 C39.4801863,12.5490423 41.4259753,12 43.5,12 C49.8512746,12 55,17.1487254 55,23.5 C55,24.748184 54.8011456,25.949923 54.4333892,27.0752648 C54.7817863,27.0256614 55.1378964,27 55.5,27 C59.6421356,27 63,30.3578644 63,34.5 C63,38.6421356 59.6421356,41 55.5,41 C55.329743,41 55.160811,40.9960164 54.9933827,40.9880889 L55,41 L9.78705583,40.1134717 Z" id="Oval-7-Copy-3" fill="#E7E7E7"></path>
                                <path d="M23,30 C30.7319865,30 36,25.7319865 36,18 C36,10.2680135 29.7319865,4 22,4 C20.6964679,4 19.4345454,4.17815222 18.2372523,4.511437 C17.8864946,4.60907576 17.5412836,4.72002877 17.2021983,4.84371723 C16.9206612,4.94641377 16.6433469,5.05788978 16.3705867,5.17781397 C15.0588544,5.75454187 13.8524469,6.52665487 12.7882102,7.45730687 C9.85359012,10.0235686 8,13.7953197 8,18 C8,25.7319865 15.2680135,30 23,30 Z" id="Path" fill="#F9F9F9"></path>
                                <path d="M12.0769231,40.01699 C18.1945388,40.01699 25,42.0776546 25,35.2900483 C25,28.5024421 18.1945388,23 12.0769231,23 C7.32987049,23 2.57624963,26.3441446 1,31 C0.544907174,32.3442328 0,34.4793352 0,36 C0,42.7876063 5.95930739,40.01699 12.0769231,40.01699 Z" id="Path" fill="#F9F9F9"></path>
                                <path d="M24,41 L55,41 C59.6666667,38.9695095 62,37.3028429 62,36 C62,35.1900767 62.8034766,31.3590926 61,29.4950446 C60.2682691,28.7387379 58.2682691,27.9070563 55,27 C54.7482351,23.625184 54.4149018,21.2918506 54,20 C52.9618004,16.7674306 51.0572875,14.6195816 50,14 C48.9157427,13.3646138 42.093216,11.6649356 40,13 C39.5850931,13.2646298 38.7923643,13.2045401 39,14 C39.554108,16.1228076 39.3847062,19.0307765 39,19 C36.0423901,18.7633912 31.3757234,22.2617394 25,29.4950446 C25.3214782,29.6929084 25.6548115,30.1945602 26,31 C28,35.6666667 27.3333333,39 24,41 Z" id="Path" fill="#F9F9F9"></path>
                                <path d="M18.9003623,4.06531497 C17.9344365,3.80649592 13.2942761,5.66899722 12.6877259,6.7470607 M10.823892,8.262932 C8.18894684,10.7671368 6.43386891,14.1884262 6.07019022,18.0152682 C6.02375174,18.5039213 6,18.9991869 6,19.5 M37,19.5 C37,18.6673454 36.9343441,17.8500256 36.8079269,17.0529352 C35.6346654,9.65524249 29.227759,4 21.5,4" id="Path" stroke="#979797" stroke-width="1.5" stroke-linecap="round" transform="translate(21.500000, 11.750000) rotate(-15.000000) translate(-21.500000, -11.750000) "></path>
                                <path d="M1.38964809,29 C0.165893865,30.9824256 0,32.4992133 0,35 C0,37.105909 0.500739271,38.406598 1.38964809,39.1932538 M24.9927594,29.9739093 C24.9927594,29 24,27 23,26 M20.6758595,24.5069475 C18.5247997,22.9307366 15.8710924,22 13,22 C8.92679265,22 5.29111608,23.873292 2.90751012,26.8053361" id="Path" stroke="#979797" stroke-width="1.5" fill="#F9F9F9" stroke-linecap="round"></path>
                                <path d="M54.4316352,27.0806276 C54.4989858,26.8748779 54.5606896,26.6665717 54.6165633,26.4558922 C54.8667087,25.5126848 55,24.5219083 55,23.5 C55,17.3386698 50.1546304,12.3090363 44.0665011,12.0137095 C43.8788133,12.004605 43.6899444,12 43.5,12 M41.041702,12.2633419 C40.1387996,12.4599605 39.2754991,12.7626371 38.4655061,13.1576662 C38.092212,13.3397197 38.3493083,12.9377243 38,13.1576662" id="Path" stroke="#979797" stroke-width="1.55" fill="#F9F9F9" stroke-linecap="round"></path>
                                <path d="M55.5,41 C58,41 63,38.4836367 63,34.5 C63,30.3578644 59.6421356,27 55.5,27 C55.214844,27 54.9334049,27.015914 54.6565224,27.0469023" id="Oval-7-Copy-3" stroke="#979797" stroke-width="1.5" stroke-linecap="round"></path>
                            </g>
                            <g id="Group-5" transform="translate(0.000000, 40.000000)" fill="#C3C3C3" stroke="#979797">
                                <rect id="Rectangle-7" x="0.5" y="0.5" width="5" height="1" rx="0.5"></rect>
                                <rect id="Rectangle-7-Copy-3" x="157.5" y="0.5" width="5" height="1" rx="0.5"></rect>
                                <rect id="Rectangle-7-Copy" x="9.5" y="0.5" width="145" height="1" rx="0.5"></rect>
                            </g>
                        </g>
                        <g id="Group-11" transform="translate(46.000000, 29.000000)">
                            <g id="Group-13">
                                <path d="M1.67316165,52.1004608 C-2.34355877,46.9147685 6.34343165,32.7209948 20.0322132,19.0322132 C41,7.10542736e-15 50,-2.66453526e-15 54.3530466,2.39103782 C54.4805173,2.5185085 54.5968255,2.6541039 54.7021595,2.79759536 C60.0818557,9.15582636 63.3254987,17.3792405 63.3254987,26.3602481 C63.3254987,46.5186415 46.9838921,62.8602481 26.8254987,62.8602481 C17.4158051,62.8602481 8.8377547,59.2995604 2.36523235,53.4520699 C1.98325195,53.1069762 1.75720879,52.6521991 1.67316165,52.1004608 Z" id="Combined-Shape" stroke="#979797" stroke-width="1.5" fill="#D9D9D9"></path>
                                <path d="M15,46 C21.6666667,56.6666667 32.6666667,60 48,56 C48,57 40,60 34,62 C28,64 12,63 4,54.0118343 C6.66666667,50.0118343 10.3333333,47.3412229 15,46 Z" id="Path-10" fill="#C2C2C2"></path>
                                <path d="M54,11 C53.2633893,12.4732213 51.930056,15.139888 50,19 C49,21 52.4831252,21.7746369 54.8949491,30 C57.6316497,39.3333333 57,46.6666667 53,52 L60,41 L61,17 L54,11 Z" id="Path-12" fill-opacity="0.624150815" fill="#F9F9F9"></path>
                                <path d="M54,12 C58,18.2745226 60,23.9411892 60,29 C60,38.7142857 57.6666667,46.3809524 53,52 C57.6666667,46 60.6666667,40.3333333 62,35 C63.3333333,29.6666667 63.6666667,25 63,21 C61.2222222,12.3333333 58.7777778,6.66666667 55.6666667,4 C55.2222222,4 54.6666667,6.66666667 54,12 Z" id="Path-11" fill="#C2C2C2"></path>
                                <path d="M50,20 C52,22.6666667 53.6666667,25.6666667 55,29 C57,34 59,48 53,52 C50.2777784,53.8148144 56,49.7714286 53,37 C52.3333333,34.1809524 50,30.1809524 46,25 L50,20 Z" id="Path-13" fill-opacity="0.660071332" fill="#C2C2C2"></path>
                                <g id="Group-12" transform="translate(1.000000, 0.000000)">
                                    <path d="M26.190017,62.6412925 C46.3484104,62.6412925 62.690017,46.2996859 62.690017,26.1412925 C62.690017,16.9676467 60,8 53,2 C44.6469534,-1.39103782 -5.66381629,46.5535217 1.72975067,53.2331143 C8.20227302,59.0806048 16.7803234,62.6412925 26.190017,62.6412925 Z" id="Oval-8" stroke="#979797" stroke-width="1.5"></path>
                                    <mask id="mask-6" fill="white">
                                        <use xlink:href="#path-5"></use>
                                    </mask>
                                    <use id="Oval-9" stroke="#979797" stroke-width="1.5" fill="#E7E7E7" xlink:href="#path-5"></use>
                                    <mask id="mask-8" fill="white">
                                        <use xlink:href="#path-7"></use>
                                    </mask>
                                    <use id="Oval-9" fill="#F9F9F9" xlink:href="#path-7"></use>
                                </g>
                            </g>
                        </g>
                        <g id="Group-14" transform="translate(89.000000, 79.000000)">
                            <circle id="Oval-7" stroke="#979797" fill="#D8D8D8" cx="5.5" cy="5.5" r="5.5"></circle>
                            <circle id="Oval-7-Copy" fill="#F9F9F9" cx="5" cy="5" r="4"></circle>
                        </g>
                        <g id="Group-14-Copy" transform="translate(56.000000, 38.000000)">
                            <g id="Group-15" transform="translate(6.000000, 5.000000)">
                                <mask id="mask-10" fill="white">
                                    <use xlink:href="#path-9"></use>
                                </mask>
                                <use id="Path-9" stroke="#979797" stroke-width="1.5" fill="#E7E7E7" xlink:href="#path-9"></use>
                                <polygon id="Path-14" fill="#CACACA" mask="url(#mask-10)" points="3 2 20 19 25 14 3 1"></polygon>
                                <polygon id="Path-15" fill="#D8D8D8" mask="url(#mask-10)" points="3 2 2 3 15 24 20 19"></polygon>
                            </g>
                            <circle id="Oval-7" stroke="#979797" fill="#D8D8D8" cx="4.5" cy="4.5" r="4.5"></circle>
                            <circle id="Oval-7-Copy" fill="#F9F9F9" cx="3.5" cy="3.5" r="2.5"></circle>
                        </g>
                        <path d="M90.7,2.3 L91.8,2.3 C92.7388841,2.3 93.5,3.06111593 93.5,4 C93.5,4.93888407 92.7388841,5.7 91.8,5.7 L90.7,5.7 L90.7,6.8 C90.7,7.73888407 89.9388841,8.5 89,8.5 C88.0611159,8.5 87.3,7.73888407 87.3,6.8 L87.3,5.7 L86.2,5.7 C85.2611159,5.7 84.5,4.93888407 84.5,4 C84.5,3.06111593 85.2611159,2.3 86.2,2.3 L87.3,2.3 L87.3,1.2 C87.3,0.261115925 88.0611159,-0.5 89,-0.5 C89.9388841,-0.5 90.7,0.261115925 90.7,1.2 L90.7,2.3 Z" id="Combined-Shape" stroke="#FFFFFF" fill="#C0C0C0"></path>
                        <path d="M26.9,72.7666667 L28.2666667,72.7666667 C29.3160077,72.7666667 30.1666667,73.6173256 30.1666667,74.6666667 C30.1666667,75.7160077 29.3160077,76.5666667 28.2666667,76.5666667 L26.9,76.5666667 L26.9,77.9333333 C26.9,78.9826744 26.049341,79.8333333 25,79.8333333 C23.950659,79.8333333 23.1,78.9826744 23.1,77.9333333 L23.1,76.5666667 L21.7333333,76.5666667 C20.6839923,76.5666667 19.8333333,75.7160077 19.8333333,74.6666667 C19.8333333,73.6173256 20.6839923,72.7666667 21.7333333,72.7666667 L23.1,72.7666667 L23.1,71.4 C23.1,70.350659 23.950659,69.5 25,69.5 C26.049341,69.5 26.9,70.350659 26.9,71.4 L26.9,72.7666667 Z" id="Combined-Shape-Copy-9" stroke="#FFFFFF" fill="#C0C0C0"></path>
                        <path d="M158.1,32.2333333 L159.733333,32.2333333 C160.893131,32.2333333 161.833333,33.1735354 161.833333,34.3333333 C161.833333,35.4931313 160.893131,36.4333333 159.733333,36.4333333 L158.1,36.4333333 L158.1,38.0666667 C158.1,39.2264646 157.159798,40.1666667 156,40.1666667 C154.840202,40.1666667 153.9,39.2264646 153.9,38.0666667 L153.9,36.4333333 L152.266667,36.4333333 C151.106869,36.4333333 150.166667,35.4931313 150.166667,34.3333333 C150.166667,33.1735354 151.106869,32.2333333 152.266667,32.2333333 L153.9,32.2333333 L153.9,30.6 C153.9,29.440202 154.840202,28.5 156,28.5 C157.159798,28.5 158.1,29.440202 158.1,30.6 L158.1,32.2333333 Z" id="Combined-Shape-Copy-8" stroke="#FFFFFF" fill="#C0C0C0"></path>
                        <path d="M156,88 L157,88 C157.828427,88 158.5,88.6715729 158.5,89.5 C158.5,90.3284271 157.828427,91 157,91 L156,91 L156,92 C156,92.8284271 155.328427,93.5 154.5,93.5 C153.671573,93.5 153,92.8284271 153,92 L153,91 L152,91 C151.171573,91 150.5,90.3284271 150.5,89.5 C150.5,88.6715729 151.171573,88 152,88 L153,88 L153,87 C153,86.1715729 153.671573,85.5 154.5,85.5 C155.328427,85.5 156,86.1715729 156,87 L156,88 Z" id="Combined-Shape-Copy-10" stroke="#FFFFFF" fill="#E4E4E4"></path>
                        <path d="M171.2,114.8 L172.8,114.8 C173.462742,114.8 174,115.337258 174,116 C174,116.662742 173.462742,117.2 172.8,117.2 L171.2,117.2 L171.2,118.8 C171.2,119.462742 170.662742,120 170,120 C169.337258,120 168.8,119.462742 168.8,118.8 L168.8,117.2 L167.2,117.2 C166.537258,117.2 166,116.662742 166,116 C166,115.337258 166.537258,114.8 167.2,114.8 L168.8,114.8 L168.8,113.2 C168.8,112.537258 169.337258,112 170,112 C170.662742,112 171.2,112.537258 171.2,113.2 L171.2,114.8 Z" id="Combined-Shape-Copy-11" fill="#E4E4E4"></path>
                        <path d="M7.2,98.8 L8.8,98.8 C9.4627417,98.8 10,99.3372583 10,100 C10,100.662742 9.4627417,101.2 8.8,101.2 L7.2,101.2 L7.2,102.8 C7.2,103.462742 6.6627417,104 6,104 C5.3372583,104 4.8,103.462742 4.8,102.8 L4.8,101.2 L3.2,101.2 C2.5372583,101.2 2,100.662742 2,100 C2,99.3372583 2.5372583,98.8 3.2,98.8 L4.8,98.8 L4.8,97.2 C4.8,96.5372583 5.3372583,96 6,96 C6.6627417,96 7.2,96.5372583 7.2,97.2 L7.2,98.8 Z" id="Combined-Shape-Copy-13" fill="#E4E4E4"></path>
                        <path d="M32.2,24.8 L33.8,24.8 C34.4627417,24.8 35,25.3372583 35,26 C35,26.6627417 34.4627417,27.2 33.8,27.2 L32.2,27.2 L32.2,28.8 C32.2,29.4627417 31.6627417,30 31,30 C30.3372583,30 29.8,29.4627417 29.8,28.8 L29.8,27.2 L28.2,27.2 C27.5372583,27.2 27,26.6627417 27,26 C27,25.3372583 27.5372583,24.8 28.2,24.8 L29.8,24.8 L29.8,23.2 C29.8,22.5372583 30.3372583,22 31,22 C31.6627417,22 32.2,22.5372583 32.2,23.2 L32.2,24.8 Z" id="Combined-Shape-Copy-12" fill="#E4E4E4"></path>
                        <path d="M55.2132232,27.6372279 L53.5080419,29.3424092 C52.9626331,29.1878806 52.4064501,29.0707713 51.8416017,28.9914694 C51.5260499,28.9471675 51.2077937,28.9146648 50.8872009,28.8940291 C50.6091431,28.8761312 50.3293276,28.8671601 50.0479942,28.8671601 C49.6627736,28.8671601 49.2803964,28.8839798 48.9014802,28.9175059 C47.7258577,29.0215236 46.5835512,29.2863581 45.4930091,29.7086249 C44.0995418,30.2481804 42.8478302,31.0207976 41.7726927,32.0050754 C41.5426499,32.2156688 41.2411572,32.3209557 40.9396645,32.3209557 C40.6381935,32.3209557 40.3366792,32.2156688 40.1066364,32.0050754 C39.6465725,31.5839083 39.6465725,30.901026 40.1066364,30.4798588 C41.3974188,29.2982275 42.9008456,28.3703873 44.5751693,27.7220472 C46.0019517,27.1696005 47.5013503,26.8412269 49.0448916,26.7421991 L50.0479942,26.710183 C50.2873552,26.710183 50.5258238,26.7156009 50.7632971,26.7264176 C51.3969783,26.7552812 52.0235731,26.8225873 52.641129,26.927975 L55.2132232,27.6372279 Z M58.0790584,29.0140335 C58.1133496,29.0359196 58.1475365,29.0579487 58.1816188,29.0801207 C58.8223691,29.4969565 59.4260964,29.9642556 59.9893735,30.4798786 C60.4494375,30.9010655 60.4494375,31.5839281 59.9893735,32.0050557 C59.529288,32.4262425 58.7833812,32.4262425 58.3232957,32.0050557 C57.877417,31.5968827 57.4011815,31.2251052 56.8970634,30.8912509 C56.7571675,30.7986042 56.6151243,30.708878 56.4709868,30.6221049 L58.0790584,29.0140334 Z M53.6562392,33.4226774 L53.6562601,33.4226774 C54.6947378,33.8790167 55.6271869,34.5321329 56.4276854,35.3638176 C56.8728755,35.8263638 56.8728964,36.5763168 56.4277063,37.0388847 C56.2051216,37.2701469 55.9133553,37.3857998 55.6216098,37.3858215 C55.3298852,37.3858215 55.0381398,37.2701904 54.8155342,37.0389064 C54.2236671,36.4239866 53.5347952,35.9413439 52.768073,35.6044337 C51.9748019,35.2558258 51.1315245,35.0790803 50.2615937,35.0790803 C49.3916629,35.0790803 48.5483854,35.2558258 47.7551143,35.6044337 C46.9883712,35.9413439 46.2995411,36.4239866 45.7076949,37.0388847 C45.2625047,37.5014743 44.5406712,37.5014743 44.0954811,37.0388847 C43.6502909,36.5763602 43.6502909,35.8263855 44.0954811,35.3638393 C44.8960004,34.5321546 45.8284496,33.8790384 46.866969,33.4226774 C47.942753,32.9498876 49.084857,32.710183 50.2615937,32.710183 C51.4383303,32.710183 52.5804134,32.9498876 53.6562392,33.4226774 Z" id="Combined-Shape" fill="#979797" fill-rule="nonzero" transform="translate(50.048005, 32.048005) rotate(-45.000000) translate(-50.048005, -32.048005) "></path>
                    </g>
                </g>
            </g>
        </g>
    </g>
</svg>