<?xml version="1.0" encoding="UTF-8"?>
<svg width="176px" height="126px" viewBox="0 0 176 126" version="1.1" xmlns="http://www.w3.org/2000/svg" xmlns:xlink="http://www.w3.org/1999/xlink">
    <!-- Generator: Sketch 51 (57462) - http://www.bohemiancoding.com/sketch -->
    <title>404@1.5x</title>
    <desc>Created with Sketch.</desc>
    <defs>
        <path d="M129.045113,43 L133,43 C122,15 102,0 67,0 C32,0 18,12 0,43 L2.95488722,43" id="path-1"></path>
    </defs>
    <g id="Web" stroke="none" stroke-width="1" fill="none" fill-rule="evenodd">
        <g id="空白/报错提示" transform="translate(-404.000000, -180.000000)">
            <g id="404" transform="translate(359.000000, 105.000000)">
                <g transform="translate(43.000000, 76.000000)">
                    <g>
                        <path d="M91,124.5625 C160.138672,124.5625 168,128.228516 168,79 C168,29.7714844 133.525926,2 91,2 C48.4740743,2 14,30.4746094 14,79 C14,127.525391 21.8613281,124.5625 91,124.5625 Z" id="Oval-4-Copy-2" fill="#F9F9F9"></path>
                        <g id="Combined-Shape-Copy-3" transform="translate(85.000000, 0.000000)" fill="#C0C0C0" stroke="#FFFFFF">
                            <path d="M9.5,3 L11,3 C12.1045695,3 13,3.8954305 13,5 C13,6.1045695 12.1045695,7 11,7 L9.5,7 L9.5,8.5 C9.5,9.6045695 8.6045695,10.5 7.5,10.5 C6.3954305,10.5 5.5,9.6045695 5.5,8.5 L5.5,7 L4,7 C2.8954305,7 2,6.1045695 2,5 C2,3.8954305 2.8954305,3 4,3 L5.5,3 L5.5,1.5 C5.5,0.3954305 6.3954305,-0.5 7.5,-0.5 C8.6045695,-0.5 9.5,0.3954305 9.5,1.5 L9.5,3 Z" id="Combined-Shape"></path>
                        </g>
                        <path d="M91,124.522949 C125.793939,124.522949 154,126.793939 154,92 C154,57.2060608 125.793939,29 91,29 C56.2060608,29 28,57.2060608 28,92 C28,126.793939 56.2060608,124.522949 91,124.522949 Z" id="Oval-4-Copy-3" fill="#F0F0F0"></path>
                        <path d="M57.6386223,84.3096073 C55.9206552,84.9787188 46.9148526,90.3052302 44,93 M39.5325916,97.2879091 C34.1703031,103.369681 28.6594392,111.579375 23,121.916992 C23.8268229,121.916992 24.4934896,121.916992 25,121.916992 C25.3793432,121.916992 26.6156713,121.916992 27,121.916992 C55.4161052,121.916992 96.6047445,121.916992 152.274902,121.916992 C152.760681,121.916992 153.247498,121.916992 153.735352,121.916992 C154.236961,121.916992 154.991844,121.916992 156,121.916992 C146.216797,93.3056641 124.05013,79 89.5,79 C81.8234094,79 74.7581541,79.7062288 68.3042342,81.1186863 C66.0325708,81.6158459 63.8366466,82.2005011 61.7164615,82.8726518" id="Oval-5" stroke="#979797" stroke-width="2" stroke-linecap="round"></path>
                        <g id="Group-7" transform="translate(23.000000, 80.000000)">
                            <mask id="mask-2" fill="white">
                                <use xlink:href="#path-1"></use>
                            </mask>
                            <use id="Oval-5" fill="#F0F0F0" xlink:href="#path-1"></use>
                            <path d="M129.193793,43 L133,43 C122.413534,16.0526316 105.962406,2.23308271 69.481203,1.61654135 C33,1 13,21 6,43 L15,43" id="Oval-5" fill="#F9F9F9" mask="url(#mask-2)"></path>
                            <circle id="Oval-6" stroke="#979797" stroke-width="1.5" fill="#F0F0F0" mask="url(#mask-2)" cx="103.5" cy="10.5" r="8.5"></circle>
                            <circle id="Oval-6-Copy" fill="#F9F9F9" mask="url(#mask-2)" cx="104.5" cy="10.5" r="6.5"></circle>
                            <circle id="Oval-6" stroke="#979797" stroke-width="1.5" fill="#F0F0F0" mask="url(#mask-2)" cx="81.5" cy="41.5" r="13.5"></circle>
                            <circle id="Oval-6-Copy" fill="#F9F9F9" mask="url(#mask-2)" cx="83" cy="41" r="11"></circle>
                        </g>
                        <g id="Group-6" transform="translate(47.000000, 97.000000)">
                            <circle id="Oval-6" stroke="#979797" stroke-width="1.5" fill="#F0F0F0" cx="8" cy="8" r="8"></circle>
                            <circle id="Oval-6-Copy" fill="#F9F9F9" cx="9" cy="7" r="6"></circle>
                        </g>
                        <g id="Group-6-Copy" transform="translate(89.000000, 110.000000)"></g>
                        <g id="Group-5" transform="translate(11.000000, 123.000000)" fill="#C3C3C3" stroke="#979797">
                            <rect id="Rectangle-7" x="0.5" y="0.5" width="11" height="1" rx="0.5"></rect>
                            <rect id="Rectangle-7-Copy-3" x="127.5" y="0.5" width="35" height="1" rx="0.5"></rect>
                            <rect id="Rectangle-7-Copy" x="15.5" y="0.5" width="103" height="1" rx="0.5"></rect>
                            <rect id="Rectangle-7-Copy-2" x="121.5" y="0.5" width="3" height="1" rx="0.5"></rect>
                        </g>
                        <g id="Group" transform="translate(115.896177, 47.572061) scale(-1, 1) rotate(-15.000000) translate(-115.896177, -47.572061) translate(65.896177, 22.072061)">
                            <circle id="Oval-6" stroke="#888888" stroke-width="1.5" fill="#FFFFFF" cx="49.8707882" cy="20.2178871" r="20.2178871"></circle>
                            <circle id="Oval-6" fill="#666666" opacity="0.4" cx="49.6237301" cy="21.7679746" r="17.2751108"></circle>
                            <circle id="Oval-6" fill="#FFFFFF" cx="59.1379607" cy="7.91931338" r="3.42644958"></circle>
                            <ellipse id="Oval-5" stroke="#888888" stroke-width="1.5" fill="#FFFFFF" cx="50.0272694" cy="31.4500466" rx="47.3315512" ry="15.2757369"></ellipse>
                            <ellipse id="Oval-5" stroke="#888888" stroke-width="1.5" fill="#FFFFFF" cx="49.7825804" cy="35.0443377" rx="49.7825804" ry="15.2757369"></ellipse>
                            <ellipse id="Oval-5" fill="#888888" opacity="0.2" cx="49.6705979" cy="37.1489993" rx="37.989152" ry="10.1918164"></ellipse>
                            <path d="M49.2370482,43.9524871 C35.4434142,43.9524871 24.2614645,40.9525681 24.2614645,37.2519805 C24.2614645,33.5513929 35.4434142,30.5514739 49.2370482,30.5514739 C63.0306822,30.5514739 74.212632,33.5513929 74.212632,37.2519805 C74.212632,40.9525681 63.0306822,43.9524871 49.2370482,43.9524871 Z M49.6237301,42.1553416 C60.1570464,42.1553416 68.6959864,40.1611844 68.6959864,37.7012669 C68.6959864,35.2413493 60.1570464,33.2471921 49.6237301,33.2471921 C39.0904138,33.2471921 30.5514739,35.2413493 30.5514739,37.7012669 C30.5514739,40.1611844 39.0904138,42.1553416 49.6237301,42.1553416 Z" id="Combined-Shape" fill="#888888"></path>
                            <ellipse id="Oval-5" fill="#C2C2C2" opacity="0.201709692" cx="49.828689" cy="23.3499336" rx="4.00147825" ry="1"></ellipse>
                            <ellipse id="Path" fill="#7A7979" opacity="0.201709692" cx="27.4044559" cy="26.2386285" rx="3.14299137" ry="1"></ellipse>
                            <ellipse id="Path" fill="#7A7979" opacity="0.201709692" cx="72.3818456" cy="26.1130049" rx="3.14299137" ry="1"></ellipse>
                            <ellipse id="Oval-5" fill="#7A7979" opacity="0.201709692" cx="91.6384514" cy="32.7291863" rx="3.14299137" ry="1"></ellipse>
                            <ellipse id="Path" fill="#7A7979" opacity="0.201709692" cx="8.46707486" cy="33.422688" rx="3.14299137" ry="1"></ellipse>
                        </g>
                        <path d="M107.084123,54.054487 L133,103 L132.670659,103.021248 C132.822298,103.333616 132.931973,103.659866 133,104 C133,108.970563 127,115 103,116 C82,116 71,111.970563 71,107 L66.025376,64.7158739 C65.4722007,62.0617197 74.0288141,57.5086121 85.2597056,54.4993038 C96.582553,51.465356 106.335918,51.1494858 107.044457,53.793788 C107.067211,53.8787064 107.08036,53.9656451 107.084123,54.054487 Z" id="Combined-Shape" fill="#666666" opacity="0.1" transform="translate(99.500000, 84.000000) scale(-1, 1) translate(-99.500000, -84.000000) "></path>
                        <path d="M97,116 C120,115 128,111.970563 128,107 C128,103 120,98 97,97 C72,96 66,100 66,105 C66,109.970563 76,116 97,116 Z" id="Oval" fill="#888888" opacity="0.205048974"></path>
                        <g id="Group" transform="translate(34.948269, 59.861023) scale(-1, 1) rotate(15.000000) translate(-34.948269, -59.861023) translate(20.448269, 48.361023)" fill-rule="nonzero">
                            <path d="M2.81560441,6.90159472 C2.6500312,6.90181987 2.49447679,6.8289425 2.39771791,6.70581458 C2.23154939,6.49460468 2.28368686,6.19985293 2.51421419,6.04747798 C3.32098115,5.51450226 4.30278108,5.03882329 5.43244366,4.63365984 C5.69722226,4.53867789 5.99567519,4.65831861 6.09921576,4.90096485 C6.20280884,5.14351494 6.07220289,5.41706881 5.80758166,5.51195466 C4.7582758,5.88827745 3.85274138,6.32588668 3.1161554,6.81262122 C3.02866938,6.87049613 2.92350347,6.90162888 2.81560441,6.90159472 Z" id="Shape" fill="#888888"></path>
                            <path d="M23.7721614,11.1192368 C23.7721614,16.8366708 19.3086122,21.4716296 13.8026316,21.4716296 C8.29654937,21.4716296 3.83421958,16.8366181 3.83421958,11.1192368 C3.83421958,5.40180273 8.29654937,0.766843916 13.8026316,0.766843916 C19.3086122,0.766843916 23.7721614,5.4018555 23.7721614,11.1192368 Z" id="Shape" fill="#F9F9F9"></path>
                            <path d="M14.0555817,0.766844043 C13.4038886,0.766743298 12.7535932,0.826389174 12.1130671,0.945013837 C16.7038725,2.04653255 20.1127029,6.13198619 20.1127029,11.0041937 C20.1127029,16.0662836 16.4332626,20.2788883 11.5716335,21.1784426 C12.3848482,21.3735511 13.2187631,21.4719779 14.0556351,21.4716287 C19.8454055,21.4716287 24.5390053,16.8366292 24.5390053,11.1192628 C24.5389519,5.40184358 19.8452986,0.766844043 14.0555817,0.766844043 Z M10.3474508,9.10626606 C10.3474508,9.83667245 9.74767447,10.4290593 9.00781141,10.4290593 C8.26794835,10.4290593 7.66843916,9.83661974 7.66843916,9.10626606 C7.66843916,8.37564862 8.26794835,7.78347283 9.00781141,7.78347283 C9.74767447,7.78347283 10.3474508,8.37564862 10.3474508,9.10626606 Z M15.8151072,14.7807388 C15.8151072,15.2003901 15.4706606,15.5405324 15.0456988,15.5405324 C14.6207371,15.5405323 14.2762904,15.2003901 14.2762904,14.7807388 C14.2762904,14.3612986 14.620737,14.0211563 15.0456988,14.0211563 C15.4706606,14.021209 15.8151073,14.3612986 15.8151072,14.7807388 Z" id="Shape" fill="#D9D9D9"></path>
                            <path d="M17.4383282,6.39357037 C17.4383282,7.24060277 18.1249836,7.9272582 18.972016,7.9272582 C19.8190484,7.9272582 20.5057038,7.24060277 20.5057038,6.39357037 C20.5057038,5.54653797 19.8190484,4.85988254 18.972016,4.85988254 C18.1249836,4.85988254 17.4383282,5.54653797 17.4383282,6.39357037 Z" id="Shape" fill="#D9D9D9"></path>
                            <path d="M18.2051721,3.70961667 C18.2051721,3.92137477 18.3768359,4.09303862 18.588594,4.09303862 C18.8003521,4.09303862 18.972016,3.92137477 18.972016,3.70961667 C18.972016,3.49785857 18.8003521,3.32619471 18.588594,3.32619471 C18.3768359,3.32619471 18.2051721,3.49785857 18.2051721,3.70961667 Z" id="Shape" fill="#F9F9F9"></path>
                            <path d="M18.8525417,14.6798955 C18.8525417,15.1034117 19.1958694,15.4467394 19.6193856,15.4467394 C20.0429018,15.4467394 20.3862295,15.1034117 20.3862295,14.6798955 C20.3862295,14.2563793 20.0429018,13.9130515 19.6193856,13.9130515 C19.1958694,13.9130515 18.8525417,14.2563793 18.8525417,14.6798955 Z" id="Shape" fill="#F9F9F9"></path>
                            <path d="M17.1293852,19.7536018 C17.1293852,19.9653599 17.3010491,20.1370237 17.5128072,20.1370237 C17.7245653,20.1370237 17.8962291,19.9653599 17.8962291,19.7536018 C17.8962291,19.5418437 17.7245653,19.3701798 17.5128072,19.3701798 C17.3010491,19.3701798 17.1293852,19.5418437 17.1293852,19.7536018 Z" id="Shape" fill="#F9F9F9"></path>
                            <path d="M14.1860088,22.2384736 C8.05517615,22.2384736 3.06737566,17.2503773 3.06737566,11.1192368 C3.06737566,4.9880963 8.05517615,0 14.1860088,0 C20.3174713,0 25.3058492,4.9880963 25.3058492,11.1192368 C25.3058492,17.2503773 20.3174713,22.2384736 14.1860088,22.2384736 Z M14.1860088,1.02993125 C8.62312286,1.02993125 4.09734338,5.55591797 4.09734338,11.1192368 C4.09734338,16.6825556 8.62312291,21.2085423 14.1860088,21.2085423 C19.7496296,21.2085423 24.2758815,16.6825556 24.2758815,11.1192368 C24.2758815,5.55591797 19.7496296,1.02993125 14.1860088,1.02993125 Z" id="Shape" fill="#888888"></path>
                            <path d="M14.2623186,18.404254 C10.5148799,18.404254 6.98366597,17.6738424 4.31929138,16.3474145 C1.53394106,14.9608153 4.9853818e-08,13.0692435 0,11.0209767 C0,10.5193681 0.0939220507,10.0193329 0.279162886,9.53438131 C0.383191751,9.26173843 0.675166819,9.13086988 0.931563808,9.24133768 C1.18780765,9.35202255 1.31123349,9.66242848 1.20715357,9.93480004 C1.0707624,10.2919758 1.00159701,10.6573986 1.00159701,11.021031 C1.00159701,14.4460764 7.07421905,17.3396718 14.2623186,17.3396718 C19.7691114,17.3396718 24.7752077,15.6556341 26.7192411,13.1492188 C26.8949876,12.9223148 27.2108005,12.8898689 27.4241158,13.0771108 C27.6375843,13.2640272 27.6679048,13.5996085 27.4919541,13.8263497 C25.3351158,16.6073611 20.1420942,18.4042539 14.2623186,18.404254 Z" id="Shape" fill="#888888"></path>
                            <path d="M26.9078741,13.7908905 C26.692836,13.6025414 26.6622925,13.2646932 26.8395371,13.0363466 C27.3774924,12.3428371 27.7202341,11.6459901 27.77651,10.9219411 C27.9850787,8.23848353 25.3058492,5.36790741 22.5851068,4.87952295 C22.315038,4.83104449 22.1767297,4.48375487 22.2639893,4.20256984 C22.3511461,3.92138487 22.6308508,3.8128116 22.9010309,3.8613339 C26.0077614,4.41927931 28.7854206,7.04065343 28.7854206,10.9219411 C28.7854206,11.906143 28.3089131,12.8277801 27.6178806,13.7183266 C27.5221309,13.8420832 27.3791938,13.9136776 27.228426,13.9133967 C27.1114025,13.9135249 26.9980158,13.8701916 26.9078741,13.7908905 Z" id="Shape" fill="#888888"></path>
                        </g>
                        <g id="Combined-Shape-Copy-3" transform="translate(25.000000, 23.000000)" fill="#C0C0C0" stroke="#FFFFFF">
                            <path d="M7.7,2.3 L8.8,2.3 C9.73888407,2.3 10.5,3.06111593 10.5,4 C10.5,4.93888407 9.73888407,5.7 8.8,5.7 L7.7,5.7 L7.7,6.8 C7.7,7.73888407 6.93888407,8.5 6,8.5 C5.06111593,8.5 4.3,7.73888407 4.3,6.8 L4.3,5.7 L3.2,5.7 C2.26111593,5.7 1.5,4.93888407 1.5,4 C1.5,3.06111593 2.26111593,2.3 3.2,2.3 L4.3,2.3 L4.3,1.2 C4.3,0.261115925 5.06111593,-0.5 6,-0.5 C6.93888407,-0.5 7.7,0.261115925 7.7,1.2 L7.7,2.3 Z" id="Combined-Shape"></path>
                        </g>
                        <path d="M7.2,81.8 L8.8,81.8 C9.4627417,81.8 10,82.3372583 10,83 C10,83.6627417 9.4627417,84.2 8.8,84.2 L7.2,84.2 L7.2,85.8 C7.2,86.4627417 6.6627417,87 6,87 C5.3372583,87 4.8,86.4627417 4.8,85.8 L4.8,84.2 L3.2,84.2 C2.5372583,84.2 2,83.6627417 2,83 C2,82.3372583 2.5372583,81.8 3.2,81.8 L4.8,81.8 L4.8,80.2 C4.8,79.5372583 5.3372583,79 6,79 C6.6627417,79 7.2,79.5372583 7.2,80.2 L7.2,81.8 Z" id="Combined-Shape" fill="#E4E4E4"></path>
                        <path d="M175.2,31.8 L176.8,31.8 C177.462742,31.8 178,32.3372583 178,33 C178,33.6627417 177.462742,34.2 176.8,34.2 L175.2,34.2 L175.2,35.8 C175.2,36.4627417 174.662742,37 174,37 C173.337258,37 172.8,36.4627417 172.8,35.8 L172.8,34.2 L171.2,34.2 C170.537258,34.2 170,33.6627417 170,33 C170,32.3372583 170.537258,31.8 171.2,31.8 L172.8,31.8 L172.8,30.2 C172.8,29.5372583 173.337258,29 174,29 C174.662742,29 175.2,29.5372583 175.2,30.2 L175.2,31.8 Z" id="Combined-Shape-Copy-6" fill="#E4E4E4"></path>
                        <path d="M57,39 L58,39 C58.8284271,39 59.5,39.6715729 59.5,40.5 C59.5,41.3284271 58.8284271,42 58,42 L57,42 L57,43 C57,43.8284271 56.3284271,44.5 55.5,44.5 C54.6715729,44.5 54,43.8284271 54,43 L54,42 L53,42 C52.1715729,42 51.5,41.3284271 51.5,40.5 C51.5,39.6715729 52.1715729,39 53,39 L54,39 L54,38 C54,37.1715729 54.6715729,36.5 55.5,36.5 C56.3284271,36.5 57,37.1715729 57,38 L57,39 Z" id="Combined-Shape-Copy-7" stroke="#FFFFFF" fill="#E4E4E4"></path>
                        <path d="M155.7,92.3 L156.8,92.3 C157.738884,92.3 158.5,93.0611159 158.5,94 C158.5,94.9388841 157.738884,95.7 156.8,95.7 L155.7,95.7 L155.7,96.8 C155.7,97.7388841 154.938884,98.5 154,98.5 C153.061116,98.5 152.3,97.7388841 152.3,96.8 L152.3,95.7 L151.2,95.7 C150.261116,95.7 149.5,94.9388841 149.5,94 C149.5,93.0611159 150.261116,92.3 151.2,92.3 L152.3,92.3 L152.3,91.2 C152.3,90.2611159 153.061116,89.5 154,89.5 C154.938884,89.5 155.7,90.2611159 155.7,91.2 L155.7,92.3 Z" id="Combined-Shape" stroke="#FFFFFF" fill="#C0C0C0"></path>
                    </g>
                </g>
            </g>
        </g>
    </g>
</svg>