<?xml version="1.0" encoding="UTF-8"?>
<svg width="175px" height="132px" viewBox="0 0 175 132" version="1.1" xmlns="http://www.w3.org/2000/svg" xmlns:xlink="http://www.w3.org/1999/xlink">
    <!-- Generator: Sketch 51 (57462) - http://www.bohemiancoding.com/sketch -->
    <title>no_result@1.5x</title>
    <desc>Created with Sketch.</desc>
    <defs>
        <path d="M22.25,0 L0.25,21 C-0.416666667,23 0.25,25 2.25,27 C4.25,29 6.25,29.3333333 8.25,28 L29.25,7 L22.25,0 Z" id="path-1"></path>
    </defs>
    <g id="Web" stroke="none" stroke-width="1" fill="none" fill-rule="evenodd">
        <g id="空白/报错提示" transform="translate(-403.000000, -467.000000)">
            <g id="搜索无结果" transform="translate(359.000000, 404.000000)">
                <g transform="translate(42.000000, 64.000000)">
                    <g>
                        <g id="huibai-copy-2">
                            <path d="M91,130.5625 C160.138672,130.5625 168,134.228516 168,85 C168,35.7714844 133.525926,8 91,8 C48.4740743,8 14,36.4746094 14,85 C14,133.525391 21.8613281,130.5625 91,130.5625 Z" id="Oval-4-Copy-2" fill="#F9F9F9"></path>
                            <path d="M93,130 C127.793939,130 156,128.793939 156,94 C156,59.2060608 127.793939,31 93,31 C58.2060608,31 30,59.2060608 30,94 C30,128.793939 58.2060608,130 93,130 Z" id="Oval-4-Copy" fill="#F0F0F0"></path>
                            <g id="Group-4" transform="translate(37.000000, 110.000000)">
                                <polygon id="Path-5" points="12 19 0 19 17 0.157894737"></polygon>
                            </g>
                            <g id="Group-5" transform="translate(11.000000, 128.000000)" fill="#C3C3C3" stroke="#979797">
                                <rect id="Rectangle-7" x="0.5" y="0.5" width="11" height="1" rx="0.5"></rect>
                                <rect id="Rectangle-7-Copy-3" x="127.5" y="0.5" width="35" height="1" rx="0.5"></rect>
                                <rect id="Rectangle-7-Copy" x="15.5" y="0.5" width="103" height="1" rx="0.5"></rect>
                                <rect id="Rectangle-7-Copy-2" x="121.5" y="0.5" width="3" height="1" rx="0.5"></rect>
                            </g>
                            <g id="Combined-Shape" transform="translate(0.000000, 72.000000)" fill="#E4E4E4">
                                <path d="M7.2,2.8 L8.8,2.8 C9.4627417,2.8 10,3.3372583 10,4 C10,4.6627417 9.4627417,5.2 8.8,5.2 L7.2,5.2 L7.2,6.8 C7.2,7.4627417 6.6627417,8 6,8 C5.3372583,8 4.8,7.4627417 4.8,6.8 L4.8,5.2 L3.2,5.2 C2.5372583,5.2 2,4.6627417 2,4 C2,3.3372583 2.5372583,2.8 3.2,2.8 L4.8,2.8 L4.8,1.2 C4.8,0.5372583 5.3372583,1.21743675e-16 6,0 C6.6627417,-1.21743675e-16 7.2,0.5372583 7.2,1.2 L7.2,2.8 Z"></path>
                            </g>
                            <g id="Combined-Shape-Copy-4" transform="translate(167.000000, 35.000000)" fill="#E4E4E4">
                                <path d="M7.2,2.8 L8.8,2.8 C9.4627417,2.8 10,3.3372583 10,4 C10,4.6627417 9.4627417,5.2 8.8,5.2 L7.2,5.2 L7.2,6.8 C7.2,7.4627417 6.6627417,8 6,8 C5.3372583,8 4.8,7.4627417 4.8,6.8 L4.8,5.2 L3.2,5.2 C2.5372583,5.2 2,4.6627417 2,4 C2,3.3372583 2.5372583,2.8 3.2,2.8 L4.8,2.8 L4.8,1.2 C4.8,0.5372583 5.3372583,1.21743675e-16 6,0 C6.6627417,-1.21743675e-16 7.2,0.5372583 7.2,1.2 L7.2,2.8 Z" id="Combined-Shape"></path>
                            </g>
                            <g id="Combined-Shape-Copy-3" transform="translate(88.000000, 0.000000)" fill="#C0C0C0" stroke="#FFFFFF">
                                <path d="M7.7,2.3 L8.8,2.3 C9.73888407,2.3 10.5,3.06111593 10.5,4 C10.5,4.93888407 9.73888407,5.7 8.8,5.7 L7.7,5.7 L7.7,6.8 C7.7,7.73888407 6.93888407,8.5 6,8.5 C5.06111593,8.5 4.3,7.73888407 4.3,6.8 L4.3,5.7 L3.2,5.7 C2.26111593,5.7 1.5,4.93888407 1.5,4 C1.5,3.06111593 2.26111593,2.3 3.2,2.3 L4.3,2.3 L4.3,1.2 C4.3,0.261115925 5.06111593,-0.5 6,-0.5 C6.93888407,-0.5 7.7,0.261115925 7.7,1.2 L7.7,2.3 Z" id="Combined-Shape"></path>
                            </g>
                            <g id="Combined-Shape-Copy-5" transform="translate(162.000000, 91.000000)" fill="#C0C0C0" stroke="#FFFFFF">
                                <path d="M7.7,2.3 L8.8,2.3 C9.73888407,2.3 10.5,3.06111593 10.5,4 C10.5,4.93888407 9.73888407,5.7 8.8,5.7 L7.7,5.7 L7.7,6.8 C7.7,7.73888407 6.93888407,8.5 6,8.5 C5.06111593,8.5 4.3,7.73888407 4.3,6.8 L4.3,5.7 L3.2,5.7 C2.26111593,5.7 1.5,4.93888407 1.5,4 C1.5,3.06111593 2.26111593,2.3 3.2,2.3 L4.3,2.3 L4.3,1.2 C4.3,0.261115925 5.06111593,-0.5 6,-0.5 C6.93888407,-0.5 7.7,0.261115925 7.7,1.2 L7.7,2.3 Z" id="Combined-Shape"></path>
                            </g>
                            <g id="Combined-Shape-Copy-2" transform="translate(26.000000, 103.000000)" fill="#C7C7C7" opacity="0.482567631">
                                <path d="M3.8,1.86666667 L4.86666667,1.86666667 C5.30849447,1.86666667 5.66666667,2.22483887 5.66666667,2.66666667 C5.66666667,3.10849447 5.30849447,3.46666667 4.86666667,3.46666667 L3.8,3.46666667 L3.8,4.53333333 C3.8,4.97516113 3.4418278,5.33333333 3,5.33333333 C2.5581722,5.33333333 2.2,4.97516113 2.2,4.53333333 L2.2,3.46666667 L1.13333333,3.46666667 C0.691505533,3.46666667 0.333333333,3.10849447 0.333333333,2.66666667 C0.333333333,2.22483887 0.691505533,1.86666667 1.13333333,1.86666667 L2.2,1.86666667 L2.2,0.8 C2.2,0.3581722 2.5581722,8.11624501e-17 3,0 C3.4418278,-8.11624501e-17 3.8,0.3581722 3.8,0.8 L3.8,1.86666667 Z" id="Combined-Shape"></path>
                            </g>
                            <g id="Combined-Shape-Copy" transform="translate(20.000000, 23.000000)" fill="#C0C0C0" stroke="#FFFFFF">
                                <path d="M10.1,3.23333333 L11.7333333,3.23333333 C12.8931313,3.23333333 13.8333333,4.17353536 13.8333333,5.33333333 C13.8333333,6.49313131 12.8931313,7.43333333 11.7333333,7.43333333 L10.1,7.43333333 L10.1,9.06666667 C10.1,10.2264646 9.15979797,11.1666667 8,11.1666667 C6.84020203,11.1666667 5.9,10.2264646 5.9,9.06666667 L5.9,7.43333333 L4.26666667,7.43333333 C3.10686869,7.43333333 2.16666667,6.49313131 2.16666667,5.33333333 C2.16666667,4.17353536 3.10686869,3.23333333 4.26666667,3.23333333 L5.9,3.23333333 L5.9,1.6 C5.9,0.440202025 6.84020203,-0.5 8,-0.5 C9.15979797,-0.5 10.1,0.440202025 10.1,1.6 L10.1,3.23333333 Z" id="Combined-Shape"></path>
                            </g>
                            <g id="1\" transform="translate(114.000000, 114.000000)" stroke="#C0C0C0" stroke-linecap="round">
                                <polyline id="Path-6-Copy" points="2.85668945 0 2.85668945 2.1159668 0 2.1159668"></polyline>
                            </g>
                        </g>
                        <g id="文件夹" transform="translate(40.000000, 44.000000)">
                            <g>
                                <path d="M100.014526,12.3882939 C99.8931816,9.42542816 98.8010787,8.68471172 95.8281317,8.68471172 L56.2697348,8.68471172 C50.2631684,8.68471172 49.5350998,8.73762004 44.9846707,4.50495475 C41.2229827,0.960097506 42.6791199,1.00771498 34.8523819,1.00769836 M30,1.00771498 C26.0581357,1.00771498 23.306447,1.00771498 22,1.00771498 L30,1.00771498 Z M18,1.00771498 C16.940051,1.00771498 15.6206352,1.00771498 14.0417528,1.00771498 C9.24863414,1.00771498 7.54980735,0.637356757 7.06442824,5.02874707 C6.63972152,9.04977917 5.66896331,18.7849094 5.54761853,20.3192505 L100.439233,20.3192505 L100.014526,12.3882939" id="Shape" stroke="#979797" stroke-width="2" fill="#F0F0F0" fill-rule="nonzero" stroke-linecap="round"></path>
                                <path d="M10,19 C68.4881475,19 97.8214809,19 98,19 C98.2677787,19 98,17 97.7322213,14.8797192 C97,13 97,13 95,13 C78,13 71,13 54,13 C48.3231312,12.8262183 48,13 45,11 C42,9 41,7 40,6 C39.3333333,5.33333333 38.3333333,5 37,5 L14,5 C12.6666667,5 11.9168457,5.58208008 11.7505371,6.74624023 C11.250179,10.9154134 10.6666667,15 10,19 Z" id="Path-20" fill="#F5F5F5"></path>
                                <path d="M4.94089465,19.9237616 C0.02643127,19.9237616 -0.216258284,22.6060011 0.0871036584,25.8630062 L7.64250555,79.0607555 C7.8851951,82.3177606 8.61326376,85 13.4670548,85 L92.774621,85 C97.7497567,85 98.2958082,82.3177605 98.5991702,79.0607555 L105.936152,25.2243777 C106.178841,21.9673726 105.96042,19.9237617 101.045957,19.9237616 L4.94089465,19.9237616 Z" id="Path" stroke="#979797" stroke-width="2" fill="#F0F0F0" stroke-linecap="round"></path>
                                <path d="M9.66122136,23.9933955 C5.02493516,23.9933955 4.79598275,26.4664083 5.08217326,29.4693523 L10.436326,78.5174387 C10.6652784,81.5203828 11.3521356,83.9933955 15.9311838,83.9933955 L92.2968122,83.9933955 C96.9903366,83.9933955 97.5054795,81.5203827 97.79167,78.5174387 L104,28 C104.228952,24.9970559 103.427956,23.9933956 98.79167,23.9933955 L9.66122136,23.9933955 Z" id="Path" fill="#FFFFFF"></path>
                                <circle id="Oval-10" fill="#979797" cx="22" cy="1" r="1"></circle>
                                <circle id="Oval-10-Copy" fill="#979797" cx="30" cy="1" r="1"></circle>
                            </g>
                            <path d="M32.5909216,43.1013861 L32.5909216,38.9090784 C32.5909216,38.2718268 33.1075161,37.7552323 33.7447677,37.7552323 C34.3820194,37.7552323 34.8986139,38.2718268 34.8986139,38.9090784 L34.8986139,43.1013861 L39.0909216,43.1013861 C39.7281732,43.1013861 40.2447677,43.6179806 40.2447677,44.2552323 C40.2447677,44.8924839 39.7281732,45.4090784 39.0909216,45.4090784 L34.8986139,45.4090784 L34.8986139,49.6013861 C34.8986139,50.2386377 34.3820194,50.7552323 33.7447677,50.7552323 C33.1075161,50.7552323 32.5909216,50.2386377 32.5909216,49.6013861 L32.5909216,45.4090784 L28.3986139,45.4090784 C27.7613623,45.4090784 27.2447677,44.8924839 27.2447677,44.2552323 C27.2447677,43.6179806 27.7613623,43.1013861 28.3986139,43.1013861 L32.5909216,43.1013861 Z" id="Rectangle-3" fill="#888888" transform="translate(33.744768, 44.255232) rotate(45.000000) translate(-33.744768, -44.255232) "></path>
                            <path d="M66.944475,43.2478327 L66.944475,39.055525 C66.944475,38.4182734 67.4610695,37.9016789 68.0983211,37.9016789 C68.7355728,37.9016789 69.2521673,38.4182734 69.2521673,39.055525 L69.2521673,43.2478327 L73.444475,43.2478327 C74.0817266,43.2478327 74.5983211,43.7644272 74.5983211,44.4016789 C74.5983211,45.0389305 74.0817266,45.555525 73.444475,45.555525 L69.2521673,45.555525 L69.2521673,49.7478327 C69.2521673,50.3850844 68.7355728,50.9016789 68.0983211,50.9016789 C67.4610695,50.9016789 66.944475,50.3850844 66.944475,49.7478327 L66.944475,45.555525 L62.7521673,45.555525 C62.1149156,45.555525 61.5983211,45.0389305 61.5983211,44.4016789 C61.5983211,43.7644272 62.1149156,43.2478327 62.7521673,43.2478327 L66.944475,43.2478327 Z" id="Rectangle-3-Copy" fill="#888888" transform="translate(68.098321, 44.401679) rotate(45.000000) translate(-68.098321, -44.401679) "></path>
                            <ellipse id="Oval-2" stroke="#888888" stroke-width="2" fill="#F0F0F0" cx="51" cy="59.315864" rx="6" ry="7.31586399"></ellipse>
                            <ellipse id="Oval-2-Copy" fill="#F9F9F9" cx="50.5" cy="58.14483" rx="4.5" ry="5.48689799"></ellipse>
                        </g>
                        <g id="search" transform="translate(128.000000, 96.500000) scale(-1, 1) translate(-128.000000, -96.500000) translate(100.000000, 69.000000)">
                            <g id="Group-19" transform="translate(0.000000, 26.000000)">
                                <mask id="mask-2" fill="white">
                                    <use xlink:href="#path-1"></use>
                                </mask>
                                <use id="Path-16" stroke="#979797" stroke-width="2" fill="#D8D8D8" xlink:href="#path-1"></use>
                                <path d="M29.25,8.55448212 L8.28265136,28.5506177 C5.89073985,29.1051619 4.05149874,28.7348631 2.76492803,27.4397213 C1.47835732,26.1445795 1.47835732,24.6633843 2.76492803,22.9961356 L23.7322767,3 C24.625973,4.64024773 25.3616695,5.75114415 25.939366,6.33268927 C26.5170625,6.91423439 27.6206072,7.654832 29.25,8.55448212 Z" id="Path-19" fill="#F0F0F0" mask="url(#mask-2)"></path>
                                <path d="M30,9 L11.3333333,29 C8.66666667,29 6.66666667,28.3333333 5.33333333,27 C4.44444444,27 4.66666667,26.6666667 6,26 L26,7 C26.1431749,7.14317491 26.4765082,7.47650825 27,8 C27.5234918,8.52349175 28.5234918,8.85682509 30,9 Z" id="Path-19" fill="#F9F9F9" mask="url(#mask-2)"></path>
                            </g>
                            <path d="M22.0598291,26 L0.247863248,47.1458333 C-0.413105413,49.1597222 0.247863248,51.1736111 2.23076923,53.1875 C4.21367521,55.2013889 6.1965812,55.537037 8.17948718,54.1944444 L29,33.0486111 L22.0598291,26 Z" id="Path-16" stroke="#979797" stroke-width="2"></path>
                            <circle id="Oval-11" stroke="#979797" stroke-width="2" fill="#D8D8D8" cx="37" cy="19" r="18"></circle>
                            <circle id="Oval-11" stroke="#979797" stroke-width="2" fill="#F0F0F0" cx="37.5" cy="19.5" r="13.5"></circle>
                            <circle id="Oval-11-Copy" fill="#F9F9F9" cx="38.5" cy="19.5" r="11.5"></circle>
                            <g id="Group-25" transform="translate(37.500000, 19.000000) scale(-1, 1) translate(-37.500000, -19.000000) translate(33.000000, 11.000000)" fill="#979797">
                                <path d="M7.8000282,0.960058902 C7.39738164,0.619648556 6.92046989,0.367244123 6.40313642,0.220757181 C5.83277979,0.0579743574 5.23816183,-0.0156563184 4.64273126,0.00276877317 C3.99698141,0.0162874247 3.39231664,0.110073143 2.82784376,0.284125902 C2.30011277,0.43983653 1.80245963,0.675224577 1.35414081,0.981181809 C0.947772354,1.25993395 0.609889958,1.61847762 0.363633793,2.03225766 C0.120866611,2.4421716 -0.00444464033,2.90498639 0.000120411017,3.37482959 C0.000120411017,3.72209017 0.0956878235,3.98570406 0.286822622,4.16567121 C0.477064267,4.34648329 0.792347392,4.44364867 1.23267197,4.45716732 C1.58457437,4.45716732 1.92933154,4.36676128 2.26605034,4.1859492 C2.6036623,4.00682696 2.77246827,3.73560884 2.77246827,3.37482959 C2.77246827,3.01405033 2.9555647,2.74959155 3.32175755,2.58314305 C3.71525645,2.41119601 4.14235548,2.31882107 4.57574476,2.31192493 C5.04554341,2.29840627 5.44924868,2.39219197 5.78596749,2.59328205 C6.12268629,2.79437212 6.29149225,3.18049886 6.29149225,3.74828258 C6.29149225,3.98485914 6.27094973,4.1969331 6.22539891,4.38365962 C6.17833292,4.57908031 6.10478369,4.76793221 6.00657635,4.94552894 C5.88590909,5.15703146 5.74190381,5.35585056 5.57696963,5.53866014 C5.39387319,5.74650954 5.17058486,5.97548185 4.90621148,6.22557707 C4.56090722,6.53773097 4.25108208,6.88321168 3.98179784,7.2563749 C3.50730151,7.91208272 3.14695931,8.63549209 2.91447963,9.39908255 C2.81891221,9.7243753 2.77157511,9.99981801 2.77157511,10.2211861 C2.77157511,10.6529383 2.90286865,10.9596429 3.16724202,11.1480592 C3.43072225,11.3356306 3.75404374,11.4285714 4.13542021,11.4285714 C4.51590352,11.4285714 4.83922501,11.3288713 5.10270523,11.1277812 C5.36618546,10.9266911 5.4992653,10.6242111 5.49926527,10.222031 C5.49926527,9.95926205 5.51802149,9.71508123 5.55464079,9.4945581 C5.59711951,9.25689175 5.6826279,9.02794078 5.80740316,8.81778016 C5.93958985,8.58880785 6.1298315,8.33279821 6.37991443,8.04806144 C6.69774662,7.69422842 7.03586702,7.35716325 7.39275028,7.03838652 C8.02242335,6.46891294 8.44488487,5.93915046 8.65566906,5.44571934 C8.8702489,4.94601281 8.98648205,4.41341498 8.99863992,3.8741751 C9.01293036,3.23626333 8.91468351,2.67523893 8.70032673,2.18856715 C8.50108368,1.72054488 8.19343703,1.30074363 7.8000282,0.960058902 Z" id="Path"></path>
                                <ellipse id="Oval-12" stroke="#979797" cx="4.21875" cy="14" rx="1.40625" ry="1.42857143"></ellipse>
                            </g>
                        </g>
                    </g>
                </g>
            </g>
        </g>
    </g>
</svg>